<svg width="18" height="18" viewBox="0 0 18 18" fill="none" xmlns="http://www.w3.org/2000/svg">
<g clip-path="url(#clip0_22_316)">
<path d="M17.7104 8.91406C17.7104 4.15049 13.8726 0.289062 9.139 0.289062C4.40329 0.290134 0.56543 4.15049 0.56543 8.91513C0.56543 13.2191 3.70043 16.7869 7.79757 17.4341V11.4073H5.62257V8.91513H7.79972V7.01335C7.79972 4.85228 9.08007 3.65871 11.0376 3.65871C11.9761 3.65871 12.9565 3.82692 12.9565 3.82692V5.94835H11.8754C10.8115 5.94835 10.4794 6.61371 10.4794 7.29621V8.91406H12.8558L12.4765 11.4062H10.4783V17.433C14.5754 16.7858 17.7104 13.218 17.7104 8.91406Z" fill="white"/>
</g>
<defs>
<clipPath id="clip0_22_316">
<rect width="17.1429" height="17.1429" fill="white" transform="translate(0.573242 0.287109)"/>
</clipPath>
</defs>
</svg>
