<svg width="20" height="21" viewBox="0 0 20 21" fill="none" xmlns="http://www.w3.org/2000/svg">
<path d="M9.99985 6.85324C7.78305 6.85324 5.99399 8.6423 5.99399 10.8591C5.99399 13.0759 7.78305 14.865 9.99985 14.865C12.2166 14.865 14.0057 13.0759 14.0057 10.8591C14.0057 8.6423 12.2166 6.85324 9.99985 6.85324ZM9.99985 13.4626C8.56625 13.4626 7.39633 12.2927 7.39633 10.8591C7.39633 9.42551 8.56625 8.25559 9.99985 8.25559C11.4334 8.25559 12.6034 9.42551 12.6034 10.8591C12.6034 12.2927 11.4334 13.4626 9.99985 13.4626ZM14.1698 5.75559C13.6522 5.75559 13.2342 6.17355 13.2342 6.69113C13.2342 7.20871 13.6522 7.62668 14.1698 7.62668C14.6873 7.62668 15.1053 7.21066 15.1053 6.69113C15.1055 6.56823 15.0814 6.44651 15.0344 6.33293C14.9875 6.21936 14.9185 6.11616 14.8316 6.02926C14.7447 5.94235 14.6415 5.87345 14.528 5.82649C14.4144 5.77953 14.2927 5.75543 14.1698 5.75559ZM17.8084 10.8591C17.8084 9.78098 17.8182 8.71262 17.7577 7.63645C17.6971 6.38645 17.412 5.27707 16.4979 4.36301C15.5819 3.44699 14.4745 3.16379 13.2245 3.10324C12.1463 3.0427 11.078 3.05246 10.0018 3.05246C8.92368 3.05246 7.85532 3.0427 6.77915 3.10324C5.52915 3.16379 4.41977 3.44895 3.50571 4.36301C2.58969 5.27902 2.30649 6.38645 2.24594 7.63645C2.1854 8.71457 2.19516 9.78293 2.19516 10.8591C2.19516 11.9353 2.1854 13.0056 2.24594 14.0818C2.30649 15.3318 2.59165 16.4411 3.50571 17.3552C4.42172 18.2712 5.52915 18.5544 6.77915 18.615C7.85727 18.6755 8.92563 18.6657 10.0018 18.6657C11.0799 18.6657 12.1483 18.6755 13.2245 18.615C14.4745 18.5544 15.5838 18.2693 16.4979 17.3552C17.4139 16.4392 17.6971 15.3318 17.7577 14.0818C17.8202 13.0056 17.8084 11.9372 17.8084 10.8591ZM16.0897 15.4646C15.9471 15.82 15.7752 16.0857 15.4998 16.3591C15.2245 16.6345 14.9608 16.8064 14.6053 16.9489C13.578 17.3571 11.1385 17.2654 9.99985 17.2654C8.86118 17.2654 6.41977 17.3572 5.39243 16.9509C5.03696 16.8083 4.77133 16.6364 4.4979 16.3611C4.2225 16.0857 4.05063 15.822 3.90805 15.4665C3.5018 14.4372 3.5936 11.9978 3.5936 10.8591C3.5936 9.72043 3.5018 7.27902 3.90805 6.25168C4.05063 5.89621 4.2225 5.63059 4.4979 5.35715C4.77329 5.08371 5.03696 4.90988 5.39243 4.7673C6.41977 4.36105 8.86118 4.45285 9.99985 4.45285C11.1385 4.45285 13.5799 4.36105 14.6073 4.7673C14.9627 4.90988 15.2284 5.08176 15.5018 5.35715C15.7772 5.63254 15.9491 5.89621 16.0916 6.25168C16.4979 7.27902 16.4061 9.72043 16.4061 10.8591C16.4061 11.9978 16.4979 14.4372 16.0897 15.4646Z" fill="white"/>
</svg>
