<svg width="18" height="18" viewBox="0 0 18 18" fill="none" xmlns="http://www.w3.org/2000/svg">
<g clip-path="url(#clip0_22_310)">
<path d="M14.8916 14.8976H12.353V10.9198C12.353 9.9712 12.3338 8.75049 11.0302 8.75049C9.70662 8.75049 9.50448 9.78263 9.50448 10.8498V14.8976H6.96591V6.71763H9.40448V7.83263H9.43734C9.77805 7.18978 10.6066 6.51121 11.8445 6.51121C14.4166 6.51121 14.8923 8.20406 14.8923 10.4076L14.8916 14.8976ZM4.09876 5.59835C3.90505 5.59863 3.71319 5.56066 3.53419 5.48662C3.35519 5.41257 3.19256 5.30392 3.05566 5.16687C2.91875 5.02983 2.81025 4.86711 2.73638 4.68803C2.66251 4.50896 2.62472 4.31706 2.62519 4.12335C2.62533 3.83176 2.71194 3.54677 2.87405 3.3044C3.03617 3.06203 3.26651 2.87318 3.53595 2.76173C3.8054 2.65027 4.10184 2.62122 4.3878 2.67824C4.67375 2.73527 4.93638 2.87581 5.14246 3.08209C5.34854 3.28837 5.48883 3.55113 5.54557 3.83714C5.60232 4.12316 5.57298 4.41957 5.46127 4.68891C5.34955 4.95824 5.16048 5.1884 4.91795 5.35028C4.67543 5.51216 4.39035 5.59849 4.09876 5.59835ZM5.37162 14.8976H2.82591V6.71763H5.37162V14.8976ZM16.1616 0.289062H1.55162C0.852335 0.289062 0.286621 0.84192 0.286621 1.52406V16.1969C0.286621 16.8798 0.852335 17.4319 1.55162 17.4319H16.1595C16.858 17.4319 17.4295 16.8798 17.4295 16.1969V1.52406C17.4295 0.84192 16.858 0.289062 16.1595 0.289062H16.1616Z" fill="white"/>
</g>
<defs>
<clipPath id="clip0_22_310">
<rect width="17.1429" height="17.1429" fill="white" transform="translate(0.283936 0.287109)"/>
</clipPath>
</defs>
</svg>
