<svg width="30" height="32" viewBox="0 0 30 32" fill="none" xmlns="http://www.w3.org/2000/svg">
<path d="M12.9168 1.40732V7.13538C12.9168 7.9126 12.3663 8.5421 11.6875 8.5421C9.26544 8.5421 7.94779 11.3846 7.76491 16.9959H11.6875C12.3662 16.9959 12.9168 17.6263 12.9168 18.4026V30.4977C12.9168 31.2746 12.3663 31.9041 11.6875 31.9041H1.22938C0.550794 31.9041 1.90735e-06 31.2739 1.90735e-06 30.4977V18.4025C1.90735e-06 15.7129 0.237283 13.2447 0.703081 11.0649C1.1816 8.83035 1.91613 6.87674 2.8858 5.25779C3.88306 3.5941 5.13161 2.28858 6.59457 1.37939C8.06863 0.464394 9.78211 1.04904e-05 11.688 1.04904e-05C12.3662 0.000600556 12.9168 0.630693 12.9168 1.40732ZM28.771 8.54259C29.4496 8.54259 30 7.9126 30 7.13647V1.40722C30 0.630695 29.4496 0.001095 28.771 0.001095C26.866 0.001095 25.1517 0.465575 23.6785 1.38047C22.2148 2.28957 20.9664 3.59401 19.9693 5.25888C18.999 6.87782 18.2645 8.83153 17.786 11.0672C17.32 13.247 17.0832 15.7152 17.0832 18.4037V30.4989C17.0832 31.2758 17.6341 31.9053 18.3125 31.9053H28.771C29.4496 31.9053 30 31.2752 30 30.4989V18.4037C30 17.6269 29.4496 16.997 28.771 16.997H24.9035C25.0841 11.3852 26.3828 8.54259 28.771 8.54259Z" fill="#68CA5F"/>
</svg>
